<?xml version="1.0" encoding="utf-8"?>
<!-- Generator: Adobe Illustrator 16.0.0, SVG Export Plug-In . SVG Version: 6.00 Build 0)  -->
<!DOCTYPE svg PUBLIC "-//W3C//DTD SVG 1.1//EN" "http://www.w3.org/Graphics/SVG/1.1/DTD/svg11.dtd">
<svg version="1.1" id="Layer_3" xmlns="http://www.w3.org/2000/svg" xmlns:xlink="http://www.w3.org/1999/xlink" x="0px" y="0px"
	 width="121.892px" height="120.611px" viewBox="0 0 121.892 120.611" enable-background="new 0 0 121.892 120.611"
	 xml:space="preserve">
<path fill="#FFFFFF" d="M22.046,119.685c-1.352,1.283-3.488,1.227-4.771-0.125L0.927,102.331c-1.283-1.352-1.228-3.488,0.125-4.771
	l0,0c1.352-1.283,3.488-1.227,4.771,0.125l16.348,17.229C23.454,116.265,23.398,118.401,22.046,119.685L22.046,119.685z"/>
<path fill="#FFFFFF" d="M119.852,71.579c-2.671,2.602-6.944,2.545-9.545-0.125L51.871,11.46c-2.602-2.671-2.545-6.944,0.125-9.545
	l0,0c2.67-2.601,6.944-2.545,9.545,0.125l58.437,59.994C122.578,64.705,122.522,68.978,119.852,71.579L119.852,71.579z"/>
<polygon fill="none" stroke="#FFFFFF" stroke-width="4" stroke-miterlimit="10" points="57.629,14.406 10.451,102.354 
	18.966,111.327 109.932,68.104 "/>
<path fill="none" stroke="#FFFFFF" stroke-width="4" stroke-miterlimit="10" d="M83.07,88.881c1.579,3.376,0.122,7.395-3.254,8.974
	l-19.248,9.005c-3.377,1.58-7.395,0.123-8.974-3.254l0,0c-1.58-3.376-0.123-7.395,3.253-8.974l19.248-9.005
	C77.472,84.048,81.49,85.504,83.07,88.881L83.07,88.881z"/>
</svg>
