<?xml version="1.0" encoding="utf-8"?>
<!-- Generator: Adobe Illustrator 16.0.0, SVG Export Plug-In . SVG Version: 6.00 Build 0)  -->
<!DOCTYPE svg PUBLIC "-//W3C//DTD SVG 1.1//EN" "http://www.w3.org/Graphics/SVG/1.1/DTD/svg11.dtd">
<svg version="1.1" id="Layer_3" xmlns="http://www.w3.org/2000/svg" xmlns:xlink="http://www.w3.org/1999/xlink" x="0px" y="0px"
	 width="121px" height="130.5px" viewBox="0 0 121 130.5" enable-background="new 0 0 121 130.5" xml:space="preserve">
<path fill="#FFFFFF" d="M91.166,61.458c0,9.241-12.666,29.917-12.666,29.917s-9.969,0-17.25,0c-7.622,0-7.583,0-18.75,0
	c-3.667-7.333-11.167-21.016-11.167-29.917c0-16.522,13.394-29.917,29.917-29.917S91.166,44.936,91.166,61.458z"/>
<path fill="#FFFFFF" d="M82.333,99.709c0,2.024-1.642,3.666-3.667,3.666H42.5c-2.025,0-3.667-1.642-3.667-3.666l0,0
	c0-2.025,1.642-3.667,3.667-3.667h36.166C80.691,96.042,82.333,97.684,82.333,99.709L82.333,99.709z"/>
<path fill="#FFFFFF" d="M77.834,115.292c0,4.925-3.992,8.917-8.917,8.917H52.084c-4.925,0-8.917-3.992-8.917-8.917l0,0
	c0-4.925,3.992-8.917,8.917-8.917h16.833C73.842,106.375,77.834,110.367,77.834,115.292L77.834,115.292z"/>
<rect x="43.167" y="106.375" fill="#FFFFFF" width="34.667" height="9.667"/>
<ellipse fill="#FFFFFF" cx="60.625" cy="129" rx="8.375" ry="1.5"/>
<rect x="52.25" y="127.5" fill="#FFFFFF" width="16.75" height="1.5"/>
<polygon fill="#FFFFFF" points="58.25,0 59.875,18 61.25,18 62.5,18 63.5,0 "/>
<polygon fill="#FFFFFF" points="0,63.5 18,61.875 18,60.5 18,59.25 0,58.25 "/>
<polygon fill="#FFFFFF" points="121,57.875 103,59.5 103,60.875 103,62.125 121,63.125 "/>
<polygon fill="#FFFFFF" points="7.632,32.101 23.661,40.451 24.403,39.293 25.078,38.241 10.467,27.681 "/>
<polygon fill="#FFFFFF" points="110.704,27.825 96.361,38.82 97.096,39.981 97.764,41.039 113.511,32.262 "/>
<polygon fill="#FFFFFF" points="28.652,8.594 38.381,23.824 39.601,23.191 40.711,22.616 33.312,6.177 "/>
<polygon fill="#FFFFFF" points="90.022,7.459 81.234,23.25 82.37,24.024 83.403,24.729 94.361,10.414 "/>
<polygon fill="#FFFFFF" points="114.203,90.012 98.163,81.686 97.423,82.845 96.748,83.898 111.376,94.436 "/>
<polygon fill="#FFFFFF" points="10.304,94.444 24.832,83.693 24.115,82.519 23.466,81.45 7.573,89.96 "/>
</svg>
