<?xml version="1.0" encoding="utf-8"?>
<!-- Generator: Adobe Illustrator 16.0.0, SVG Export Plug-In . SVG Version: 6.00 Build 0)  -->
<!DOCTYPE svg PUBLIC "-//W3C//DTD SVG 1.1//EN" "http://www.w3.org/Graphics/SVG/1.1/DTD/svg11.dtd">
<svg version="1.1" id="Layer_2" xmlns="http://www.w3.org/2000/svg" xmlns:xlink="http://www.w3.org/1999/xlink" x="0px" y="0px"
	 width="568.334px" height="464.084px" viewBox="0 0 568.334 464.084" enable-background="new 0 0 568.334 464.084"
	 xml:space="preserve">
<ellipse fill="#FFFFFF" cx="402.834" cy="182.501" rx="17.5" ry="15.167"/>
<polygon fill="#FFFFFF" points="390.001,197.667 416.334,197.667 449.668,221.001 439.668,228.334 415.334,214.667 420.334,239.001 
	440.334,294.668 423.001,294.668 402.834,255.001 385.334,294.668 364.668,294.668 387.668,239.001 391.668,214.334 
	364.668,228.667 354.001,222.667 "/>
<circle fill="none" stroke="#FFFFFF" stroke-width="10" stroke-miterlimit="10" cx="404.001" cy="233.001" r="92"/>
<rect x="237.834" y="33.334" fill="none" stroke="#FFFFFF" stroke-width="10" stroke-miterlimit="10" width="325.5" height="422"/>
<path fill="#FFFFFF" d="M264.584,64.584c0,4.004-3.246,7.25-7.25,7.25h-30.25c-4.004,0-7.25-3.246-7.25-7.25l0,0
	c0-4.004,3.246-7.25,7.25-7.25h30.25C261.338,57.334,264.584,60.58,264.584,64.584L264.584,64.584z"/>
<path fill="#FFFFFF" d="M264.584,91.584c0,4.004-3.246,7.25-7.25,7.25h-30.25c-4.004,0-7.25-3.246-7.25-7.25l0,0
	c0-4.004,3.246-7.25,7.25-7.25h30.25C261.338,84.334,264.584,87.58,264.584,91.584L264.584,91.584z"/>
<path fill="#FFFFFF" d="M264.584,120.084c0,4.004-3.246,7.25-7.25,7.25h-30.25c-4.004,0-7.25-3.246-7.25-7.25l0,0
	c0-4.004,3.246-7.25,7.25-7.25h30.25C261.338,112.834,264.584,116.08,264.584,120.084L264.584,120.084z"/>
<path fill="#FFFFFF" d="M264.584,147.084c0,4.004-3.246,7.25-7.25,7.25h-30.25c-4.004,0-7.25-3.246-7.25-7.25l0,0
	c0-4.004,3.246-7.25,7.25-7.25h30.25C261.338,139.834,264.584,143.08,264.584,147.084L264.584,147.084z"/>
<path fill="#FFFFFF" d="M264.584,174.584c0,4.004-3.246,7.25-7.25,7.25h-30.25c-4.004,0-7.25-3.246-7.25-7.25l0,0
	c0-4.004,3.246-7.25,7.25-7.25h30.25C261.338,167.334,264.584,170.58,264.584,174.584L264.584,174.584z"/>
<path fill="#FFFFFF" d="M264.584,202.334c0,4.004-3.246,7.25-7.25,7.25h-30.25c-4.004,0-7.25-3.246-7.25-7.25l0,0
	c0-4.004,3.246-7.25,7.25-7.25h30.25C261.338,195.084,264.584,198.33,264.584,202.334L264.584,202.334z"/>
<path fill="#FFFFFF" d="M264.584,229.584c0,4.004-3.246,7.25-7.25,7.25h-30.25c-4.004,0-7.25-3.246-7.25-7.25l0,0
	c0-4.004,3.246-7.25,7.25-7.25h30.25C261.338,222.334,264.584,225.58,264.584,229.584L264.584,229.584z"/>
<path fill="#FFFFFF" d="M264.584,257.334c0,4.004-3.246,7.25-7.25,7.25h-30.25c-4.004,0-7.25-3.246-7.25-7.25l0,0
	c0-4.004,3.246-7.25,7.25-7.25h30.25C261.338,250.084,264.584,253.33,264.584,257.334L264.584,257.334z"/>
<path fill="#FFFFFF" d="M264.584,284.584c0,4.004-3.246,7.25-7.25,7.25h-30.25c-4.004,0-7.25-3.246-7.25-7.25l0,0
	c0-4.004,3.246-7.25,7.25-7.25h30.25C261.338,277.334,264.584,280.58,264.584,284.584L264.584,284.584z"/>
<path fill="#FFFFFF" d="M264.584,312.084c0,4.004-3.246,7.25-7.25,7.25h-30.25c-4.004,0-7.25-3.246-7.25-7.25l0,0
	c0-4.004,3.246-7.25,7.25-7.25h30.25C261.338,304.834,264.584,308.08,264.584,312.084L264.584,312.084z"/>
<path fill="#FFFFFF" d="M264.584,340.084c0,4.004-3.246,7.25-7.25,7.25h-30.25c-4.004,0-7.25-3.246-7.25-7.25l0,0
	c0-4.004,3.246-7.25,7.25-7.25h30.25C261.338,332.834,264.584,336.08,264.584,340.084L264.584,340.084z"/>
<path fill="#FFFFFF" d="M264.584,367.334c0,4.004-3.246,7.25-7.25,7.25h-30.25c-4.004,0-7.25-3.246-7.25-7.25l0,0
	c0-4.004,3.246-7.25,7.25-7.25h30.25C261.338,360.084,264.584,363.33,264.584,367.334L264.584,367.334z"/>
<path fill="#FFFFFF" d="M264.584,394.834c0,4.004-3.246,7.25-7.25,7.25h-30.25c-4.004,0-7.25-3.246-7.25-7.25l0,0
	c0-4.004,3.246-7.25,7.25-7.25h30.25C261.338,387.584,264.584,390.83,264.584,394.834L264.584,394.834z"/>
<path fill="#FFFFFF" d="M264.584,422.334c0,4.004-3.246,7.25-7.25,7.25h-30.25c-4.004,0-7.25-3.246-7.25-7.25l0,0
	c0-4.004,3.246-7.25,7.25-7.25h30.25C261.338,415.084,264.584,418.33,264.584,422.334L264.584,422.334z"/>
<path fill="#FFFFFF" d="M202.334,447.084c0,6.627-5.373,12-12,12h-51.25c-6.627,0-12-5.373-12-12v-17.75c0-6.627,5.373-12,12-12
	h51.25c6.627,0,12,5.373,12,12V447.084z"/>
<rect x="127.084" y="417.334" fill="#FFFFFF" width="75.25" height="15.75"/>
<rect x="127.084" y="131.834" fill="#FFFFFF" width="75.25" height="273"/>
<polygon fill="#FFFFFF" points="127.084,119.334 202.334,119.334 180.167,77.667 149.667,77.667 "/>
<polygon fill="#FFFFFF" points="175.001,69.667 164.709,49.334 153.501,69.667 "/>
<rect x="5" y="5" fill="none" stroke="#FFFFFF" stroke-width="10" stroke-miterlimit="10" width="100.667" height="454.084"/>
<rect x="57.334" y="51.834" fill="#FFFFFF" width="33" height="5.167"/>
<rect x="57.334" y="79.501" fill="#FFFFFF" width="33" height="5.167"/>
<rect x="57.334" y="107.001" fill="#FFFFFF" width="33" height="5.167"/>
<rect x="56.501" y="134.667" fill="#FFFFFF" width="33" height="5.167"/>
<rect x="57.334" y="162" fill="#FFFFFF" width="33" height="5.167"/>
<rect x="57.334" y="189.667" fill="#FFFFFF" width="33" height="5.167"/>
<rect x="57.334" y="216.834" fill="#FFFFFF" width="33" height="5.167"/>
<rect x="57.334" y="244.501" fill="#FFFFFF" width="33" height="5.167"/>
<rect x="57.334" y="272.001" fill="#FFFFFF" width="33" height="5.167"/>
<rect x="57.334" y="299.501" fill="#FFFFFF" width="33" height="5.167"/>
<rect x="57.334" y="327.334" fill="#FFFFFF" width="33" height="5.167"/>
<rect x="57.334" y="354.334" fill="#FFFFFF" width="33" height="5.167"/>
<rect x="57.334" y="382.001" fill="#FFFFFF" width="33" height="5.167"/>
<rect x="57.334" y="409.167" fill="#FFFFFF" width="33" height="5.167"/>
</svg>
